<svg width="370" height="87" viewBox="0 0 370 87" fill="none" xmlns="http://www.w3.org/2000/svg">
<g clip-path="url(#clip0)">
<path d="M54.2689 0V57.5529H65.1217V10.7671L54.2689 0Z" fill="white"/>
<path d="M72.3604 86.3318L43.4112 57.5502H54.2689L72.3604 75.5418V86.3318Z" fill="white"/>
<path d="M0 57.5529L28.9415 86.3318V68.3451L18.0838 57.5529H0Z" fill="white"/>
<path d="M21.6951 57.5529L50.6401 86.3318V71.9393L36.176 57.5529H21.6951Z" fill="white"/>
<path d="M86.8308 57.5529L115.78 86.3318V82.7307L90.4456 57.5529H86.8308Z" fill="white"/>
<path d="M90.4638 0V57.5529H108.551V17.9443L90.4638 0Z" fill="white"/>
<path d="M36.1431 0V57.5529H43.3622V7.17437L36.1431 0Z" fill="white"/>
<path d="M18.0887 0V57.5529H21.7021V3.58718L18.0887 0Z" fill="white"/>
<path d="M65.1259 57.5529L94.0674 86.3318V79.1387L72.3639 57.5529H65.1259Z" fill="white"/>
<path d="M72.3604 0V57.5529H86.8308V14.3564L72.3604 0Z" fill="white"/>
<path d="M86.8308 57.5529L115.78 86.3318V82.7307L90.4519 57.5529H86.8308Z" fill="white"/>
<path d="M143.063 78.8631C143.063 77.2671 142.5 76.0088 141.373 75.0789C140.247 74.1504 138.185 73.2672 135.193 72.4313C132.199 71.5982 130.013 70.6788 128.634 69.6953C126.674 68.2999 125.696 66.4687 125.696 64.2032C125.696 62.0032 126.605 60.2144 128.427 58.835C130.247 57.4625 132.575 56.7741 135.413 56.7741C137.332 56.7741 139.052 57.1451 140.569 57.8787C142.085 58.6171 143.259 59.6437 144.099 60.9612C144.932 62.2809 145.35 63.7466 145.35 65.3683H142.885C142.885 63.4 142.209 61.8166 140.856 60.6244C139.507 59.428 137.692 58.8287 135.413 58.8287C133.198 58.8287 131.437 59.3222 130.127 60.3035C128.817 61.2849 128.159 62.569 128.159 64.1545C128.159 65.6154 128.752 66.8111 129.926 67.7319C131.108 68.6562 132.993 69.4719 135.585 70.1805C138.185 70.8841 140.153 71.6149 141.492 72.3708C142.827 73.1294 143.838 74.0384 144.514 75.09C145.188 76.1417 145.525 77.3868 145.525 78.822C145.525 81.0889 144.615 82.9061 142.792 84.2759C140.974 85.6449 138.571 86.3318 135.585 86.3318C133.548 86.3318 131.68 85.9685 129.977 85.244C128.274 84.5209 126.985 83.5047 126.102 82.2011C125.218 80.8961 124.78 79.4011 124.78 77.714H127.226C127.226 79.7435 127.986 81.345 129.512 82.5171C131.032 83.6905 133.062 84.2752 135.585 84.2752C137.841 84.2752 139.652 83.7803 141.017 82.7962C142.378 81.8071 143.063 80.4945 143.063 78.8631Z" fill="white"/>
<path d="M152.737 74.218V85.9386H150.294V57.1694H160.153C163.16 57.1694 165.533 57.9343 167.278 59.4648C169.017 60.9905 169.89 63.091 169.89 65.7643C169.89 68.4662 169.053 70.5466 167.373 72.0158C165.699 73.4865 163.27 74.218 160.093 74.218H152.737ZM152.737 72.1661H160.153C162.521 72.1661 164.329 71.6017 165.578 70.4818C166.819 69.362 167.442 67.7994 167.442 65.7922C167.442 63.8023 166.827 62.2168 165.588 61.0371C164.35 59.8567 162.589 59.2505 160.307 59.2254H152.737V72.1661Z" fill="white"/>
<path d="M196.673 57.1625V76.1076C196.673 79.2549 195.684 81.7473 193.708 83.5799C191.724 85.4083 189.019 86.3235 185.584 86.3235C182.207 86.3235 179.526 85.4326 177.54 83.6564C175.552 81.8795 174.538 79.4345 174.5 76.3289V57.1625H180.46V76.1501C180.46 78.0341 180.91 79.406 181.819 80.2669C182.729 81.1286 183.982 81.5608 185.584 81.5608C188.937 81.5608 190.642 79.811 190.695 76.3053V57.1618H196.673V57.1625Z" fill="white"/>
<path d="M212.979 69.9042C212.196 69.7991 211.506 69.7448 210.911 69.7448C208.737 69.7448 207.31 70.477 206.638 71.9351V85.9282H200.897V64.5491H206.478V67.0965C207.634 65.1345 209.232 64.1573 211.271 64.1573C211.874 64.1573 212.444 64.2157 212.979 64.3856V69.9042Z" fill="white"/>
<path d="M235.691 75.436C235.691 78.8631 234.959 81.5294 233.488 83.4476C232.017 85.3658 229.963 86.3284 227.325 86.3284C225.168 86.3284 223.414 85.5642 222.057 84.0392V85.9302H216.32V57.1674H222.057V66.4666C223.385 64.9264 225.131 64.1559 227.286 64.1559C229.912 64.1559 231.967 65.115 233.456 67.029C234.95 68.9465 235.691 71.6442 235.691 75.1221V75.436ZM229.949 75.0023C229.949 72.8357 229.604 71.2523 228.918 70.2549C228.227 69.2603 227.199 68.7571 225.837 68.7571C224.008 68.7571 222.749 69.5067 222.057 70.9997V79.4588C222.763 80.9685 224.037 81.7208 225.876 81.7208C227.73 81.7208 228.947 80.8105 229.534 78.9814C229.814 78.1156 229.949 76.7841 229.949 75.0023Z" fill="white"/>
<path d="M251.309 85.9456L251.311 84.2654C249.95 85.6372 248.218 86.3277 246.119 86.3277C244.015 86.3277 242.272 85.718 240.884 84.5041C239.499 83.2952 238.807 81.7661 238.807 79.9182C238.807 77.6555 239.654 75.9183 241.343 74.7045C243.03 73.4969 245.475 72.883 248.663 72.8698H251.308V71.6428C251.308 70.6565 251.05 69.8666 250.541 69.268C250.03 68.6813 249.229 68.3848 248.127 68.3848C247.161 68.3848 246.403 68.6131 245.856 69.0731C245.303 69.5346 245.026 70.1679 245.026 70.969H239.285C239.285 69.7329 239.67 68.5852 240.44 67.5315C241.205 66.4798 242.293 65.653 243.694 65.0516C245.097 64.4538 246.677 64.1538 248.426 64.1538C251.075 64.1538 253.178 64.8143 254.736 66.143C256.291 67.4647 257.066 69.3251 257.066 71.7193V85.9449H251.309V85.9456ZM247.375 81.9575C248.218 81.9575 249.003 81.7723 249.719 81.3944C250.431 81.0186 250.964 80.5119 251.309 79.8813V76.2071H249.16C246.287 76.2071 244.757 77.1954 244.574 79.1714L244.55 79.5041C244.55 80.2182 244.803 80.8035 245.307 81.267C245.811 81.7264 246.497 81.9575 247.375 81.9575Z" fill="white"/>
<path d="M266.958 64.5512V66.8285C268.48 65.0489 270.484 64.1587 272.983 64.1587C275.256 64.1587 276.958 64.8213 278.07 66.1513C279.178 67.4821 279.753 69.4719 279.776 72.1147V85.9289H274.035V72.2253C274.035 71.008 273.768 70.1297 273.24 69.5819C272.712 69.0348 271.829 68.7558 270.598 68.7558C268.981 68.7558 267.769 69.4455 266.958 70.8208V85.9289H261.222V64.5505H266.958V64.5512Z" fill="white"/>
<path d="M283.8 59.018C283.8 58.1626 284.088 57.4562 284.666 56.9057C285.239 56.3509 286.025 56.0767 287.018 56.0767C287.999 56.0767 288.778 56.3516 289.363 56.9057C289.949 57.4562 290.236 58.1626 290.236 59.018C290.236 59.8859 289.942 60.5986 289.356 61.1526C288.76 61.7046 287.986 61.983 287.018 61.983C286.054 61.983 285.274 61.7046 284.683 61.1526C284.097 60.5979 283.8 59.8859 283.8 59.018ZM289.901 85.9296H284.141V64.5512H289.901V85.9296Z" fill="white"/>
<path d="M306.132 80.0219C306.132 79.3245 305.78 78.7719 305.087 78.3682C304.391 77.9694 303.276 77.6103 301.737 77.2922C296.624 76.2294 294.069 74.0669 294.069 70.8138C294.069 68.9179 294.859 67.3331 296.442 66.0629C298.028 64.7927 300.098 64.1552 302.655 64.1552C305.382 64.1552 307.562 64.7927 309.203 66.072C310.833 67.3491 311.656 69.0105 311.656 71.0526H305.909C305.909 70.2334 305.644 69.5582 305.117 69.03C304.586 68.4934 303.76 68.2282 302.634 68.2282C301.665 68.2282 300.918 68.4453 300.383 68.879C299.854 69.3119 299.589 69.868 299.589 70.5354C299.589 71.1709 299.893 71.6824 300.495 72.0694C301.1 72.4585 302.113 72.7912 303.549 73.0786C304.979 73.3619 306.182 73.6779 307.162 74.0335C310.197 75.1416 311.713 77.0569 311.713 79.7818C311.713 81.7334 310.869 83.3112 309.19 84.5153C307.505 85.7208 305.336 86.3284 302.674 86.3284C300.869 86.3284 299.272 86.0054 297.872 85.3658C296.471 84.7262 295.377 83.8499 294.583 82.7405C293.791 81.6248 293.392 80.4249 293.392 79.1324H298.839C298.887 80.1458 299.269 80.926 299.968 81.4626C300.669 82.0034 301.611 82.2756 302.79 82.2756C303.889 82.2756 304.721 82.0633 305.285 81.6505C305.844 81.2385 306.132 80.6956 306.132 80.0219Z" fill="white"/>
<path d="M320.975 64.5512V66.9427C322.494 65.0864 324.557 64.1594 327.152 64.1594C329.921 64.1594 331.823 65.2416 332.854 67.4166C334.37 65.2416 336.518 64.1594 339.312 64.1594C341.647 64.1594 343.382 64.8296 344.52 66.1812C345.659 67.5315 346.229 69.5617 346.229 72.2754V85.9296H340.469V72.2657C340.469 71.0491 340.224 70.1624 339.747 69.5993C339.274 69.0425 338.433 68.7564 337.227 68.7564C335.506 68.7564 334.312 69.5798 333.651 71.2175L333.668 85.9296H327.93V72.2838C327.93 71.0421 327.683 70.145 327.191 69.5896C326.702 69.0355 325.868 68.7571 324.687 68.7571C323.059 68.7571 321.881 69.433 321.147 70.779V85.9302H315.409V64.5519H320.975V64.5512Z" fill="white"/>
<path d="M349.601 75.0448C349.601 72.9192 350.014 71.0338 350.831 69.3724C351.656 67.7111 352.834 66.4304 354.382 65.5194C355.923 64.609 357.716 64.1552 359.756 64.1552C362.658 64.1552 365.023 65.0391 366.86 66.8042C368.696 68.5699 369.72 70.9676 369.928 73.9959L369.97 75.4589C369.97 78.7343 369.045 81.3715 367.207 83.3509C365.367 85.3352 362.896 86.3284 359.793 86.3284C356.694 86.3284 354.223 85.3373 352.375 83.3585C350.524 81.3847 349.601 78.6995 349.601 75.3002V75.0448ZM355.345 75.4471C355.345 77.4808 355.725 79.0315 356.499 80.1047C357.265 81.1794 358.363 81.7194 359.792 81.7194C361.187 81.7194 362.27 81.1863 363.055 80.1277C363.835 79.0691 364.226 77.3667 364.226 75.0288C364.226 73.0424 363.835 71.4959 363.055 70.3997C362.27 69.3091 361.169 68.7564 359.755 68.7564C358.353 68.7564 357.264 69.3042 356.499 70.3941C355.725 71.4792 355.345 73.1649 355.345 75.4471Z" fill="white"/>
</g>
<defs>
<clipPath id="clip0">
<rect width="369.97" height="86.3318" fill="white"/>
</clipPath>
</defs>
</svg>
